<svg id="svg" version="1.1" xmlns="http://www.w3.org/2000/svg" viewBox="0 0 1000 623" style="display: block;"><path d="M0 0 C330 0 660 0 1000 0 C1000 205.59 1000 411.18 1000 623 C670 623 340 623 0 623 C0 417.41 0 211.82 0 0 Z " transform="translate(0,0)" style="fill: #000000;"/><path d="M0 0 C0.66 0 1.32 0 2 0 C2 102.96 2 205.92 2 312 C75.92 312 149.84 312 226 312 C226 209.04 226 106.08 226 0 C226.66 0 227.32 0 228 0 C228.61705811 1.0837793 228.61705811 1.0837793 229.24658203 2.18945312 C236.44409858 14.82451683 243.65173491 27.45178563 251 40 C256.05633807 48.6349588 261.04607133 57.30606337 266 66 C271.53985933 75.72124506 277.13374932 85.40894868 282.78344727 95.06689453 C288.93766742 105.59084625 295.02369996 116.15380137 301.10888672 126.71777344 C304.23680148 132.14659942 307.36858448 137.57319281 310.5 143 C311.75001879 145.16665583 313.00001878 147.3333225 314.25 149.5 C315.178125 151.10875 315.178125 151.10875 316.125 152.75 C411.75 318.49999999 411.75 318.49999999 413.62524414 321.75048828 C414.87435518 323.91557071 416.12354129 326.08060982 417.37280273 328.24560547 C420.51202309 333.68615706 423.64990563 339.12747216 426.78515625 344.5703125 C433.36955163 355.99755066 439.98330829 367.40641747 446.64282227 378.79003906 C451.9921852 387.95173932 457.25390965 397.16276804 462.49584961 406.38623047 C465.88806922 412.34526572 469.32929284 418.25569116 472.95117188 424.07861328 C474 426 474 426 474 428 C236.4 428 -1.2 428 -246 428 C-244.51508007 424.28770017 -243.03192692 421.09399307 -241.09375 417.640625 C-240.52019775 416.61654541 -239.94664551 415.59246582 -239.35571289 414.53735352 C-238.74332764 413.45252686 -238.13094238 412.3677002 -237.5 411.25 C-236.86634521 410.12327881 -236.23269043 408.99655762 -235.57983398 407.83569336 C-231.74999436 401.04482257 -227.86664399 394.29015254 -223.8894043 387.5847168 C-220.14695337 381.27275475 -216.47596521 374.92058399 -212.8125 368.5625 C-211.85549194 366.90166382 -211.85549194 366.90166382 -210.87915039 365.20727539 C-209.57110523 362.93662932 -208.26324552 360.66587642 -206.95556641 358.39501953 C-203.80667946 352.9283002 -200.65316736 347.46425113 -197.5 342 C-196.2499765 339.83334689 -194.99997653 337.66668021 -193.75 335.5 C-181.25 313.83333333 -168.75 292.16666667 -156.25 270.5 C-155.63116943 269.42733887 -155.01233887 268.35467773 -154.37475586 267.24951172 C-153.12564482 265.08442929 -151.87645871 262.91939018 -150.62719727 260.75439453 C-147.48797691 255.31384294 -144.35009437 249.87252784 -141.21484375 244.4296875 C-135.19252671 233.97793801 -129.15330663 223.53700452 -123.0625 213.125 C-117.98724877 204.44737759 -112.97741233 195.73394432 -108 187 C-102.4599827 177.27884383 -96.86625191 167.59105342 -91.21655273 157.93310547 C-85.06233258 147.40915375 -78.97630004 136.84619863 -72.89111328 126.28222656 C-69.76319852 120.85340058 -66.63141552 115.42680719 -63.5 110 C-62.24998121 107.83334417 -60.99998122 105.6666775 -59.75 103.5 C-48.5 84 -48.5 84 -37.25 64.5 C-36.3213916 62.89040405 -36.3213916 62.89040405 -35.37402344 61.24829102 C-34.12729744 59.08731012 -32.88055273 56.92634002 -31.63378906 54.76538086 C-27.81136035 48.14007087 -23.98941995 41.51447986 -20.16870117 34.88818359 C-18.90425351 32.69651721 -17.63881483 30.50542223 -16.37231445 28.31494141 C-13.45574547 23.26937396 -10.55170674 18.217824 -7.68359375 13.14453125 C-6.92030762 11.80249634 -6.92030762 11.80249634 -6.14160156 10.43334961 C-5.19600784 8.76966986 -4.25622384 7.10266992 -3.32324219 5.43188477 C-2.2715492 3.58813293 -1.14389583 1.78801043 0 0 Z " transform="translate(386,195)" style="fill: #EE3D37;"/><path d="M0 0 C11.23084164 10.72163471 16.85230241 25.6400921 17.34643555 40.92675781 C17.59776861 59.16881244 11.06710832 75.49850343 -0.9375 89.1875 C-1.50597656 89.909375 -2.07445312 90.63125 -2.66015625 91.375 C-13.48788365 104.61655198 -29.1796649 113.23447175 -45.9375 116.1875 C-47.60360243 116.23086431 -49.27182693 116.24504143 -50.9375 116.1875 C-50.91429687 117.27804687 -50.89109375 118.36859375 -50.8671875 119.4921875 C-50.57258904 139.42221971 -50.61116082 163.5127871 -64.5625 179.125 C-68.74555554 182.75765349 -72.90455847 182.53399191 -78.21484375 182.45703125 C-82.8825761 181.99494584 -85.37594589 180.08910601 -88.30078125 176.52734375 C-101.57869431 157.45258369 -97.25487121 125.94644457 -97.19824219 103.76635742 C-97.18701339 99.32907753 -97.19352255 94.89204199 -97.20511627 90.45477104 C-97.24684629 71.61141088 -96.94781737 52.81165752 -96.046875 33.98828125 C-96.00804451 33.13261251 -95.96921402 32.27694378 -95.92920685 31.39534569 C-95.81655985 28.97558326 -95.69151032 26.55682587 -95.56152344 24.13793945 C-95.51256046 23.08077067 -95.51256046 23.08077067 -95.46260834 22.00224495 C-94.83217255 11.26171758 -94.83217255 11.26171758 -91.37109375 7.47265625 C-80.3531762 0.72391223 -68.79977196 -4.50420732 -56.4375 -8.25 C-55.62563232 -8.49685547 -54.81376465 -8.74371094 -53.97729492 -8.99804688 C-35.07277238 -14.4352997 -15.76355504 -12.46172933 0 0 Z " transform="translate(539.9375,269.8125)" style="fill: #EE3D37;"/><path d="M0 0 C3.94209538 1.31403179 4.30057532 2.78856653 6.30078125 6.37890625 C6.94080078 7.51521484 7.58082031 8.65152344 8.24023438 9.82226562 C8.93099802 11.06900574 9.62175301 12.31575066 10.3125 13.5625 C11.39685914 15.49510185 12.4845317 17.42581568 13.57223511 19.35653687 C14.3112103 20.66893768 15.04909594 21.98195255 15.78591919 23.29556274 C19.12101436 29.23814814 22.5483718 35.12438859 26 41 C31.40124946 50.22079817 36.71979803 59.4868396 42.00942993 68.7718811 C47.41058807 78.25042429 52.87479766 87.69065521 58.39648438 97.09960938 C60.91895117 101.40335865 63.43060725 105.71320336 65.89453125 110.05078125 C66.3016333 110.76532471 66.70873535 111.47986816 67.12817383 112.21606445 C68 114 68 114 68 116 C23.78 116 -20.44 116 -66 116 C-64.53195771 111.59587313 -63.32284118 108.52117022 -61.05078125 104.640625 C-60.45773193 103.62081543 -59.86468262 102.60100586 -59.25366211 101.55029297 C-58.61307861 100.46119629 -57.97249512 99.37209961 -57.3125 98.25 C-56.63817285 97.0942512 -55.96443682 95.93815734 -55.29125977 94.78173828 C-53.89270204 92.38019452 -52.49161706 89.98015196 -51.08886719 87.58105469 C-47.84524109 82.02768166 -44.64478536 76.44940689 -41.4375 70.875 C-36.11280344 61.63622317 -30.74778209 52.42177019 -25.36157227 43.21875 C-22.11336425 37.65748684 -18.89506831 32.08027567 -15.70703125 26.484375 C-15.3454744 25.84994476 -14.98391754 25.21551453 -14.61140442 24.56185913 C-12.84684654 21.46397272 -11.08546729 18.36433038 -9.32836914 15.26220703 C-8.6914917 14.14185059 -8.05461426 13.02149414 -7.3984375 11.8671875 C-6.55804932 10.38387939 -6.55804932 10.38387939 -5.70068359 8.87060547 C-3.90054601 5.83213034 -1.98317072 2.92139844 0 0 Z " transform="translate(499,0)" style="fill: #EE3D37;"/><path d="M0 0 C17.82 0 35.64 0 54 0 C54 11.22 54 22.44 54 34 C36.18 34 18.36 34 0 34 C0 22.78 0 11.56 0 0 Z " transform="translate(473,171)" style="fill: #EE3D37;"/><path d="M0 0 C3.12423503 2.01773512 4.5513925 3.49996866 5.625 7.08984375 C6.63894256 13.26855624 5.27791254 17.40632571 1.91796875 22.70703125 C-2.85948449 29.10102456 -12.05396215 35.64335939 -20 37 C-19.98839844 36.44957031 -19.97679687 35.89914062 -19.96484375 35.33203125 C-19.85496712 25.20768496 -20.47080616 15.10675794 -21 5 C-6.86234293 -1.69804396 -6.86234293 -1.69804396 0 0 Z " transform="translate(508,307)" style="fill: #000000;"/><path d="M0 0 C12.54 0 25.08 0 38 0 C38 1.98 38 3.96 38 6 C25.46 6 12.92 6 0 6 C0 4.02 0 2.04 0 0 Z " transform="translate(481,225)" style="fill: #ED3E38;"/><path d="M0 0 C1.98 0 3.96 0 6 0 C6 1.98 6 3.96 6 6 C4.02 6 2.04 6 0 6 C0 4.02 0 2.04 0 0 Z " transform="translate(521,225)" style="fill: #ED3D38;"/><path d="M0 0 C1.98 0 3.96 0 6 0 C6 1.98 6 3.96 6 6 C4.02 6 2.04 6 0 6 C0 4.02 0 2.04 0 0 Z " transform="translate(521,217)" style="fill: #ED3E38;"/><path d="M0 0 C1.98 0 3.96 0 6 0 C6 1.98 6 3.96 6 6 C4.02 6 2.04 6 0 6 C0 4.02 0 2.04 0 0 Z " transform="translate(513,217)" style="fill: #EE3E37;"/><path d="M0 0 C1.98 0 3.96 0 6 0 C6 1.98 6 3.96 6 6 C4.02 6 2.04 6 0 6 C0 4.02 0 2.04 0 0 Z " transform="translate(505,217)" style="fill: #EE3D38;"/><path d="M0 0 C1.98 0 3.96 0 6 0 C6 1.98 6 3.96 6 6 C4.02 6 2.04 6 0 6 C0 4.02 0 2.04 0 0 Z " transform="translate(497,217)" style="fill: #EE3E37;"/><path d="M0 0 C1.98 0 3.96 0 6 0 C6 1.98 6 3.96 6 6 C4.02 6 2.04 6 0 6 C0 4.02 0 2.04 0 0 Z " transform="translate(489,217)" style="fill: #EE3D37;"/><path d="M0 0 C1.98 0 3.96 0 6 0 C6 1.98 6 3.96 6 6 C4.02 6 2.04 6 0 6 C0 4.02 0 2.04 0 0 Z " transform="translate(481,217)" style="fill: #EE3E38;"/><path d="M0 0 C1.98 0 3.96 0 6 0 C6 1.98 6 3.96 6 6 C4.02 6 2.04 6 0 6 C0 4.02 0 2.04 0 0 Z " transform="translate(521,209)" style="fill: #ED3D37;"/><path d="M0 0 C1.98 0 3.96 0 6 0 C6 1.98 6 3.96 6 6 C4.02 6 2.04 6 0 6 C0 4.02 0 2.04 0 0 Z " transform="translate(513,209)" style="fill: #ED3E37;"/><path d="M0 0 C1.98 0 3.96 0 6 0 C6 1.98 6 3.96 6 6 C4.02 6 2.04 6 0 6 C0 4.02 0 2.04 0 0 Z " transform="translate(505,209)" style="fill: #EE3D37;"/><path d="M0 0 C1.98 0 3.96 0 6 0 C6 1.98 6 3.96 6 6 C4.02 6 2.04 6 0 6 C0 4.02 0 2.04 0 0 Z " transform="translate(497,209)" style="fill: #EE3E37;"/><path d="M0 0 C1.98 0 3.96 0 6 0 C6 1.98 6 3.96 6 6 C4.02 6 2.04 6 0 6 C0 4.02 0 2.04 0 0 Z " transform="translate(489,209)" style="fill: #ED3E37;"/><path d="M0 0 C1.98 0 3.96 0 6 0 C6 1.98 6 3.96 6 6 C4.02 6 2.04 6 0 6 C0 4.02 0 2.04 0 0 Z " transform="translate(481,209)" style="fill: #ED3E37;"/><path d="M0 0 C1.65 0 3.3 0 5 0 C5 1.98 5 3.96 5 6 C3.35 6 1.7 6 0 6 C0 4.02 0 2.04 0 0 Z " transform="translate(530,225)" style="fill: #ED3E37;"/><path d="M0 0 C1.65 0 3.3 0 5 0 C5 1.98 5 3.96 5 6 C3.35 6 1.7 6 0 6 C0 4.02 0 2.04 0 0 Z " transform="translate(473,225)" style="fill: #ED3D37;"/><path d="M0 0 C1.65 0 3.3 0 5 0 C5 1.98 5 3.96 5 6 C3.35 6 1.7 6 0 6 C0 4.02 0 2.04 0 0 Z " transform="translate(465,225)" style="fill: #ED3E37;"/><path d="M0 0 C1.65 0 3.3 0 5 0 C5 1.98 5 3.96 5 6 C3.35 6 1.7 6 0 6 C0 4.02 0 2.04 0 0 Z " transform="translate(530,217)" style="fill: #ED3E37;"/><path d="M0 0 C1.65 0 3.3 0 5 0 C5 1.98 5 3.96 5 6 C3.35 6 1.7 6 0 6 C0 4.02 0 2.04 0 0 Z " transform="translate(473,217)" style="fill: #EE3D37;"/><path d="M0 0 C1.65 0 3.3 0 5 0 C5 1.98 5 3.96 5 6 C3.35 6 1.7 6 0 6 C0 4.02 0 2.04 0 0 Z " transform="translate(465,217)" style="fill: #ED3E37;"/><path d="M0 0 C1.65 0 3.3 0 5 0 C5 1.98 5 3.96 5 6 C3.35 6 1.7 6 0 6 C0 4.02 0 2.04 0 0 Z " transform="translate(530,209)" style="fill: #ED3E37;"/><path d="M0 0 C1.65 0 3.3 0 5 0 C5 1.98 5 3.96 5 6 C3.35 6 1.7 6 0 6 C0 4.02 0 2.04 0 0 Z " transform="translate(473,209)" style="fill: #EE3D37;"/><path d="M0 0 C1.65 0 3.3 0 5 0 C5 1.98 5 3.96 5 6 C3.35 6 1.7 6 0 6 C0 4.02 0 2.04 0 0 Z " transform="translate(465,209)" style="fill: #ED3E37;"/></svg>